<svg width="384" height="416" viewBox="0 0 384 416" fill="none" xmlns="http://www.w3.org/2000/svg">
<line x1="4.25" x2="4.25" y2="416" stroke="#EEEEEE" stroke-width="0.5"/>
<line x1="8.25" x2="8.25" y2="416" stroke="#EEEEEE" stroke-width="0.5"/>
<line x1="4.25" x2="4.25" y2="416" stroke="#EEEEEE" stroke-width="0.5"/>
<line x1="8.25" x2="8.25" y2="416" stroke="#EEEEEE" stroke-width="0.5"/>
<line x1="16.25" x2="16.25" y2="416" stroke="#EEEEEE" stroke-width="0.5"/>
<line x1="20.25" x2="20.25" y2="416" stroke="#EEEEEE" stroke-width="0.5"/>
<line x1="24.25" x2="24.25" y2="416" stroke="#EEEEEE" stroke-width="0.5"/>
<line x1="28.25" x2="28.25" y2="416" stroke="#EEEEEE" stroke-width="0.5"/>
<line x1="32.25" x2="32.25" y2="416" stroke="#EEEEEE" stroke-width="0.5"/>
<line x1="36.25" x2="36.25" y2="416" stroke="#EEEEEE" stroke-width="0.5"/>
<line x1="40.25" x2="40.25" y2="416" stroke="#EEEEEE" stroke-width="0.5"/>
<line x1="44.25" x2="44.25" y2="416" stroke="#EEEEEE" stroke-width="0.5"/>
<line x1="52.25" x2="52.25" y2="416" stroke="#EEEEEE" stroke-width="0.5"/>
<line x1="56.25" x2="56.25" y2="416" stroke="#EEEEEE" stroke-width="0.5"/>
<line x1="60.25" x2="60.25" y2="416" stroke="#EEEEEE" stroke-width="0.5"/>
<line x1="64.25" x2="64.25" y2="416" stroke="#EEEEEE" stroke-width="0.5"/>
<line x1="68.25" x2="68.25" y2="416" stroke="#EEEEEE" stroke-width="0.5"/>
<line x1="72.25" x2="72.25" y2="416" stroke="#EEEEEE" stroke-width="0.5"/>
<line x1="76.25" x2="76.25" y2="416" stroke="#EEEEEE" stroke-width="0.5"/>
<line x1="80.25" x2="80.25" y2="416" stroke="#EEEEEE" stroke-width="0.5"/>
<line x1="88.25" x2="88.25" y2="416" stroke="#EEEEEE" stroke-width="0.5"/>
<line x1="92.25" x2="92.25" y2="416" stroke="#EEEEEE" stroke-width="0.5"/>
<line x1="96.25" x2="96.25" y2="416" stroke="#EEEEEE" stroke-width="0.5"/>
<line x1="100.25" x2="100.25" y2="416" stroke="#EEEEEE" stroke-width="0.5"/>
<line x1="104.25" x2="104.25" y2="416" stroke="#EEEEEE" stroke-width="0.5"/>
<line x1="108.25" x2="108.25" y2="416" stroke="#EEEEEE" stroke-width="0.5"/>
<line x1="112.25" x2="112.25" y2="416" stroke="#EEEEEE" stroke-width="0.5"/>
<line x1="116.25" x2="116.25" y2="416" stroke="#EEEEEE" stroke-width="0.5"/>
<line x1="124.25" x2="124.25" y2="416" stroke="#EEEEEE" stroke-width="0.5"/>
<line x1="128.25" x2="128.25" y2="416" stroke="#EEEEEE" stroke-width="0.5"/>
<line x1="132.25" x2="132.25" y2="416" stroke="#EEEEEE" stroke-width="0.5"/>
<line x1="136.25" x2="136.25" y2="416" stroke="#EEEEEE" stroke-width="0.5"/>
<line x1="140.25" x2="140.25" y2="416" stroke="#EEEEEE" stroke-width="0.5"/>
<line x1="144.25" x2="144.25" y2="416" stroke="#EEEEEE" stroke-width="0.5"/>
<line x1="148.25" x2="148.25" y2="416" stroke="#EEEEEE" stroke-width="0.5"/>
<line x1="152.25" x2="152.25" y2="416" stroke="#EEEEEE" stroke-width="0.5"/>
<line x1="160.25" x2="160.25" y2="416" stroke="#EEEEEE" stroke-width="0.5"/>
<line x1="164.25" x2="164.25" y2="416" stroke="#EEEEEE" stroke-width="0.5"/>
<line x1="168.25" x2="168.25" y2="416" stroke="#EEEEEE" stroke-width="0.5"/>
<line x1="172.25" x2="172.25" y2="416" stroke="#EEEEEE" stroke-width="0.5"/>
<line x1="176.25" x2="176.25" y2="416" stroke="#EEEEEE" stroke-width="0.5"/>
<line x1="180.25" x2="180.25" y2="416" stroke="#EEEEEE" stroke-width="0.5"/>
<line x1="156.25" x2="156.25" y2="416" stroke="#EEEEEE" stroke-width="0.5"/>
<line x1="184.25" x2="184.25" y2="416" stroke="#EEEEEE" stroke-width="0.5"/>
<line x1="188.25" x2="188.25" y2="416" stroke="#EEEEEE" stroke-width="0.5"/>
<line x1="196.25" x2="196.25" y2="416" stroke="#EEEEEE" stroke-width="0.5"/>
<line x1="200.25" x2="200.25" y2="416" stroke="#EEEEEE" stroke-width="0.5"/>
<line x1="204.25" x2="204.25" y2="416" stroke="#EEEEEE" stroke-width="0.5"/>
<line x1="208.25" x2="208.25" y2="416" stroke="#EEEEEE" stroke-width="0.5"/>
<line x1="212.25" x2="212.25" y2="416" stroke="#EEEEEE" stroke-width="0.5"/>
<line x1="216.25" x2="216.25" y2="416" stroke="#EEEEEE" stroke-width="0.5"/>
<line x1="192.25" x2="192.25" y2="416" stroke="#EEEEEE" stroke-width="0.5"/>
<line x1="220.25" x2="220.25" y2="416" stroke="#EEEEEE" stroke-width="0.5"/>
<line x1="224.25" x2="224.25" y2="416" stroke="#EEEEEE" stroke-width="0.5"/>
<line x1="232.25" x2="232.25" y2="416" stroke="#EEEEEE" stroke-width="0.5"/>
<line x1="236.25" x2="236.25" y2="416" stroke="#EEEEEE" stroke-width="0.5"/>
<line x1="240.25" x2="240.25" y2="416" stroke="#EEEEEE" stroke-width="0.5"/>
<line x1="244.25" x2="244.25" y2="416" stroke="#EEEEEE" stroke-width="0.5"/>
<line x1="248.25" x2="248.25" y2="416" stroke="#EEEEEE" stroke-width="0.5"/>
<line x1="252.25" x2="252.25" y2="416" stroke="#EEEEEE" stroke-width="0.5"/>
<line x1="256.25" x2="256.25" y2="416" stroke="#EEEEEE" stroke-width="0.5"/>
<line x1="260.25" x2="260.25" y2="416" stroke="#EEEEEE" stroke-width="0.5"/>
<line x1="268.25" x2="268.25" y2="416" stroke="#EEEEEE" stroke-width="0.5"/>
<line x1="272.25" x2="272.25" y2="416" stroke="#EEEEEE" stroke-width="0.5"/>
<line x1="276.25" x2="276.25" y2="416" stroke="#EEEEEE" stroke-width="0.5"/>
<line x1="280.25" x2="280.25" y2="416" stroke="#EEEEEE" stroke-width="0.5"/>
<line x1="284.25" x2="284.25" y2="416" stroke="#EEEEEE" stroke-width="0.5"/>
<line x1="288.25" x2="288.25" y2="416" stroke="#EEEEEE" stroke-width="0.5"/>
<line x1="292.25" x2="292.25" y2="416" stroke="#EEEEEE" stroke-width="0.5"/>
<line x1="296.25" x2="296.25" y2="416" stroke="#EEEEEE" stroke-width="0.5"/>
<line x1="304.25" x2="304.25" y2="416" stroke="#EEEEEE" stroke-width="0.5"/>
<line x1="308.25" x2="308.25" y2="416" stroke="#EEEEEE" stroke-width="0.5"/>
<line x1="312.25" x2="312.25" y2="416" stroke="#EEEEEE" stroke-width="0.5"/>
<line x1="316.25" x2="316.25" y2="416" stroke="#EEEEEE" stroke-width="0.5"/>
<line x1="320.25" x2="320.25" y2="416" stroke="#EEEEEE" stroke-width="0.5"/>
<line x1="324.25" x2="324.25" y2="416" stroke="#EEEEEE" stroke-width="0.5"/>
<line x1="328.25" x2="328.25" y2="416" stroke="#EEEEEE" stroke-width="0.5"/>
<line x1="332.25" x2="332.25" y2="416" stroke="#EEEEEE" stroke-width="0.5"/>
<line x1="336.25" x2="336.25" y2="416" stroke="#EEEEEE" stroke-width="0.5"/>
<line x1="340.25" x2="340.25" y2="416" stroke="#EEEEEE" stroke-width="0.5"/>
<line x1="344.25" x2="344.25" y2="416" stroke="#EEEEEE" stroke-width="0.5"/>
<line x1="348.25" x2="348.25" y2="416" stroke="#EEEEEE" stroke-width="0.5"/>
<line x1="352.25" x2="352.25" y2="416" stroke="#EEEEEE" stroke-width="0.5"/>
<line x1="356.25" x2="356.25" y2="416" stroke="#EEEEEE" stroke-width="0.5"/>
<line x1="360.25" x2="360.25" y2="416" stroke="#EEEEEE" stroke-width="0.5"/>
<line x1="364.25" x2="364.25" y2="416" stroke="#EEEEEE" stroke-width="0.5"/>
<line x1="368.25" x2="368.25" y2="416" stroke="#EEEEEE" stroke-width="0.5"/>
<line x1="372.25" x2="372.25" y2="416" stroke="#EEEEEE" stroke-width="0.5"/>
<line x1="376.25" x2="376.25" y2="416" stroke="#EEEEEE" stroke-width="0.5"/>
<line x1="380.25" x2="380.25" y2="416" stroke="#EEEEEE" stroke-width="0.5"/>
<line x1="228.25" x2="228.25" y2="416" stroke="#EEEEEE" stroke-width="0.5"/>
<line x1="264.25" x2="264.25" y2="416" stroke="#EEEEEE" stroke-width="0.5"/>
<line x1="300.25" x2="300.25" y2="416" stroke="#EEEEEE" stroke-width="0.5"/>
<line x1="12.25" x2="12.25" y2="416" stroke="#EEEEEE" stroke-width="0.5"/>
<line x1="12.25" x2="12.25" y2="416" stroke="#EEEEEE" stroke-width="0.5"/>
<line x1="120.25" x2="120.25" y2="416" stroke="#EEEEEE" stroke-width="0.5"/>
<line x1="84.25" x2="84.25" y2="416" stroke="#EEEEEE" stroke-width="0.5"/>
<line x1="48.25" x2="48.25" y2="416" stroke="#EEEEEE" stroke-width="0.5"/>
<line y1="335.75" x2="384" y2="335.75" stroke="#EEEEEE" stroke-width="0.5"/>
<line y1="331.75" x2="384" y2="331.75" stroke="#EEEEEE" stroke-width="0.5"/>
<line y1="335.75" x2="384" y2="335.75" stroke="#EEEEEE" stroke-width="0.5"/>
<line y1="339.75" x2="384" y2="339.75" stroke="#EEEEEE" stroke-width="0.5"/>
<line y1="331.75" x2="384" y2="331.75" stroke="#EEEEEE" stroke-width="0.5"/>
<line y1="323.75" x2="384" y2="323.75" stroke="#EEEEEE" stroke-width="0.5"/>
<line y1="319.75" x2="384" y2="319.75" stroke="#EEEEEE" stroke-width="0.5"/>
<line y1="315.75" x2="384" y2="315.75" stroke="#EEEEEE" stroke-width="0.5"/>
<line y1="311.75" x2="384" y2="311.75" stroke="#EEEEEE" stroke-width="0.5"/>
<line y1="307.75" x2="384" y2="307.75" stroke="#EEEEEE" stroke-width="0.5"/>
<line y1="303.75" x2="384" y2="303.75" stroke="#EEEEEE" stroke-width="0.5"/>
<line y1="299.75" x2="384" y2="299.75" stroke="#EEEEEE" stroke-width="0.5"/>
<line y1="295.75" x2="384" y2="295.75" stroke="#EEEEEE" stroke-width="0.5"/>
<line y1="287.75" x2="384" y2="287.75" stroke="#EEEEEE" stroke-width="0.5"/>
<line y1="283.75" x2="384" y2="283.75" stroke="#EEEEEE" stroke-width="0.5"/>
<line y1="279.75" x2="384" y2="279.75" stroke="#EEEEEE" stroke-width="0.5"/>
<line y1="275.75" x2="384" y2="275.75" stroke="#EEEEEE" stroke-width="0.5"/>
<line y1="271.75" x2="384" y2="271.75" stroke="#EEEEEE" stroke-width="0.5"/>
<line y1="267.75" x2="384" y2="267.75" stroke="#EEEEEE" stroke-width="0.5"/>
<line y1="263.75" x2="384" y2="263.75" stroke="#EEEEEE" stroke-width="0.5"/>
<line y1="259.75" x2="384" y2="259.75" stroke="#EEEEEE" stroke-width="0.5"/>
<line y1="251.75" x2="384" y2="251.75" stroke="#EEEEEE" stroke-width="0.5"/>
<line y1="247.75" x2="384" y2="247.75" stroke="#EEEEEE" stroke-width="0.5"/>
<line y1="243.75" x2="384" y2="243.75" stroke="#EEEEEE" stroke-width="0.5"/>
<line y1="239.75" x2="384" y2="239.75" stroke="#EEEEEE" stroke-width="0.5"/>
<line y1="235.75" x2="384" y2="235.75" stroke="#EEEEEE" stroke-width="0.5"/>
<line y1="231.75" x2="384" y2="231.75" stroke="#EEEEEE" stroke-width="0.5"/>
<line y1="227.75" x2="384" y2="227.75" stroke="#EEEEEE" stroke-width="0.5"/>
<line y1="223.75" x2="384" y2="223.75" stroke="#EEEEEE" stroke-width="0.5"/>
<line y1="215.75" x2="384" y2="215.75" stroke="#EEEEEE" stroke-width="0.5"/>
<line y1="211.75" x2="384" y2="211.75" stroke="#EEEEEE" stroke-width="0.5"/>
<line y1="207.75" x2="384" y2="207.75" stroke="#EEEEEE" stroke-width="0.5"/>
<line y1="203.75" x2="384" y2="203.75" stroke="#EEEEEE" stroke-width="0.5"/>
<line y1="199.75" x2="384" y2="199.75" stroke="#EEEEEE" stroke-width="0.5"/>
<line y1="195.75" x2="384" y2="195.75" stroke="#EEEEEE" stroke-width="0.5"/>
<line y1="191.75" x2="384" y2="191.75" stroke="#EEEEEE" stroke-width="0.5"/>
<line y1="187.75" x2="384" y2="187.75" stroke="#EEEEEE" stroke-width="0.5"/>
<line y1="179.75" x2="384" y2="179.75" stroke="#EEEEEE" stroke-width="0.5"/>
<line y1="175.75" x2="384" y2="175.75" stroke="#EEEEEE" stroke-width="0.5"/>
<line y1="171.75" x2="384" y2="171.75" stroke="#EEEEEE" stroke-width="0.5"/>
<line y1="167.75" x2="384" y2="167.75" stroke="#EEEEEE" stroke-width="0.5"/>
<line y1="163.75" x2="384" y2="163.75" stroke="#EEEEEE" stroke-width="0.5"/>
<line y1="159.75" x2="384" y2="159.75" stroke="#EEEEEE" stroke-width="0.5"/>
<line y1="183.75" x2="384" y2="183.75" stroke="#EEEEEE" stroke-width="0.5"/>
<line y1="155.75" x2="384" y2="155.75" stroke="#EEEEEE" stroke-width="0.5"/>
<line y1="151.75" x2="384" y2="151.75" stroke="#EEEEEE" stroke-width="0.5"/>
<line y1="143.75" x2="384" y2="143.75" stroke="#EEEEEE" stroke-width="0.5"/>
<line y1="139.75" x2="384" y2="139.75" stroke="#EEEEEE" stroke-width="0.5"/>
<line y1="135.75" x2="384" y2="135.75" stroke="#EEEEEE" stroke-width="0.5"/>
<line y1="131.75" x2="384" y2="131.75" stroke="#EEEEEE" stroke-width="0.5"/>
<line y1="127.75" x2="384" y2="127.75" stroke="#EEEEEE" stroke-width="0.5"/>
<line y1="123.75" x2="384" y2="123.75" stroke="#EEEEEE" stroke-width="0.5"/>
<line y1="147.75" x2="384" y2="147.75" stroke="#EEEEEE" stroke-width="0.5"/>
<line y1="119.75" x2="384" y2="119.75" stroke="#EEEEEE" stroke-width="0.5"/>
<line y1="115.75" x2="384" y2="115.75" stroke="#EEEEEE" stroke-width="0.5"/>
<line y1="107.75" x2="384" y2="107.75" stroke="#EEEEEE" stroke-width="0.5"/>
<line y1="103.75" x2="384" y2="103.75" stroke="#EEEEEE" stroke-width="0.5"/>
<line y1="99.75" x2="384" y2="99.75" stroke="#EEEEEE" stroke-width="0.5"/>
<line y1="95.75" x2="384" y2="95.75" stroke="#EEEEEE" stroke-width="0.5"/>
<line y1="91.75" x2="384" y2="91.75" stroke="#EEEEEE" stroke-width="0.5"/>
<line y1="87.75" x2="384" y2="87.75" stroke="#EEEEEE" stroke-width="0.5"/>
<line y1="83.75" x2="384" y2="83.75" stroke="#EEEEEE" stroke-width="0.5"/>
<line y1="79.75" x2="384" y2="79.75" stroke="#EEEEEE" stroke-width="0.5"/>
<line y1="71.75" x2="384" y2="71.75" stroke="#EEEEEE" stroke-width="0.5"/>
<line y1="67.75" x2="384" y2="67.75" stroke="#EEEEEE" stroke-width="0.5"/>
<line y1="63.75" x2="384" y2="63.75" stroke="#EEEEEE" stroke-width="0.5"/>
<line y1="59.75" x2="384" y2="59.75" stroke="#EEEEEE" stroke-width="0.5"/>
<line y1="55.75" x2="384" y2="55.75" stroke="#EEEEEE" stroke-width="0.5"/>
<line y1="51.75" x2="384" y2="51.75" stroke="#EEEEEE" stroke-width="0.5"/>
<line y1="47.75" x2="384" y2="47.75" stroke="#EEEEEE" stroke-width="0.5"/>
<line y1="43.75" x2="384" y2="43.75" stroke="#EEEEEE" stroke-width="0.5"/>
<line y1="35.75" x2="384" y2="35.75" stroke="#EEEEEE" stroke-width="0.5"/>
<line y1="31.75" x2="384" y2="31.75" stroke="#EEEEEE" stroke-width="0.5"/>
<line y1="27.75" x2="384" y2="27.75" stroke="#EEEEEE" stroke-width="0.5"/>
<line y1="23.75" x2="384" y2="23.75" stroke="#EEEEEE" stroke-width="0.5"/>
<line y1="19.75" x2="384" y2="19.75" stroke="#EEEEEE" stroke-width="0.5"/>
<line y1="15.75" x2="384" y2="15.75" stroke="#EEEEEE" stroke-width="0.5"/>
<line y1="11.75" x2="384" y2="11.75" stroke="#EEEEEE" stroke-width="0.5"/>
<line y1="7.75" x2="384" y2="7.75" stroke="#EEEEEE" stroke-width="0.5"/>
<line y1="3.75" x2="384" y2="3.75" stroke="#EEEEEE" stroke-width="0.5"/>
<line y1="111.75" x2="384" y2="111.75" stroke="#EEEEEE" stroke-width="0.5"/>
<line y1="75.75" x2="384" y2="75.75" stroke="#EEEEEE" stroke-width="0.5"/>
<line y1="39.75" x2="384" y2="39.75" stroke="#EEEEEE" stroke-width="0.5"/>
<line y1="327.75" x2="384" y2="327.75" stroke="#EEEEEE" stroke-width="0.5"/>
<line y1="327.75" x2="384" y2="327.75" stroke="#EEEEEE" stroke-width="0.5"/>
<line y1="219.75" x2="384" y2="219.75" stroke="#EEEEEE" stroke-width="0.5"/>
<line y1="255.75" x2="384" y2="255.75" stroke="#EEEEEE" stroke-width="0.5"/>
<line y1="291.75" x2="384" y2="291.75" stroke="#EEEEEE" stroke-width="0.5"/>
<line y1="411.75" x2="384" y2="411.75" stroke="#EEEEEE" stroke-width="0.5"/>
<line y1="407.75" x2="384" y2="407.75" stroke="#EEEEEE" stroke-width="0.5"/>
<line y1="403.75" x2="384" y2="403.75" stroke="#EEEEEE" stroke-width="0.5"/>
<line y1="399.75" x2="384" y2="399.75" stroke="#EEEEEE" stroke-width="0.5"/>
<line y1="395.75" x2="384" y2="395.75" stroke="#EEEEEE" stroke-width="0.5"/>
<line y1="391.75" x2="384" y2="391.75" stroke="#EEEEEE" stroke-width="0.5"/>
<line y1="387.75" x2="384" y2="387.75" stroke="#EEEEEE" stroke-width="0.5"/>
<line y1="379.75" x2="384" y2="379.75" stroke="#EEEEEE" stroke-width="0.5"/>
<line y1="375.75" x2="384" y2="375.75" stroke="#EEEEEE" stroke-width="0.5"/>
<line y1="371.75" x2="384" y2="371.75" stroke="#EEEEEE" stroke-width="0.5"/>
<line y1="367.75" x2="384" y2="367.75" stroke="#EEEEEE" stroke-width="0.5"/>
<line y1="363.75" x2="384" y2="363.75" stroke="#EEEEEE" stroke-width="0.5"/>
<line y1="359.75" x2="384" y2="359.75" stroke="#EEEEEE" stroke-width="0.5"/>
<line y1="355.75" x2="384" y2="355.75" stroke="#EEEEEE" stroke-width="0.5"/>
<line y1="351.75" x2="384" y2="351.75" stroke="#EEEEEE" stroke-width="0.5"/>
<line y1="343.75" x2="384" y2="343.75" stroke="#EEEEEE" stroke-width="0.5"/>
<line y1="347.75" x2="384" y2="347.75" stroke="#EEEEEE" stroke-width="0.5"/>
<line y1="383.75" x2="384" y2="383.75" stroke="#EEEEEE" stroke-width="0.5"/>
</svg>
