<svg width="366" height="328" viewBox="0 0 366 328" fill="none" xmlns="http://www.w3.org/2000/svg">
<path d="M4 307L2 300.5L55.5 298L66.5 283L63 252.5L72 245.5L88.5 291L156 295L150 230L156 223.5L174 270.5V278.5V288.5L178 286.5L191 280L201 278.5L208 281.5L215 288.5H217.5L229.5 280H232.5L239 281.5L306.5 255.5L328.5 271L239 322.5H162L138 325L75 327L47.5 325.5H37L27 320.5L20.5 314L4 307Z" fill="#ECECEC"/>
<path d="M136 51.5L57.5 75.5L54 92L70.5 107V135L66 150.5L62.5 155L54 161.5L62.5 175.5L101 190.5L126.5 180.5V165.5L113 158.5L116.5 140L129.5 143.5L138.5 140L164.5 114L168 71L136 51.5Z" fill="#ECECEC"/>
<path d="M72.2553 101.446C72.2553 101.446 72.4334 143.458 63.5264 154.945C63.5264 154.945 66.8491 176.44 101.966 179.639C101.966 179.639 120.337 179.344 116.488 163.466C116.488 163.466 125.008 164.596 113.831 158.733C112.67 157.571 116.929 139.508 116.929 139.508" stroke="black" stroke-width="3" stroke-linecap="round" stroke-linejoin="round"/>
<path d="M75.5242 83.8786C75.5242 83.8786 68.8788 74.5217 62.0397 79.9437C55.2007 85.3657 58.0974 92.2052 60.4907 96.3414C62.884 100.477 66.4235 103.374 73.1386 101.182C73.1386 101.182 80.0474 116.155 91.3399 125.124C102.633 134.094 118.317 141.003 129.354 143.327C129.354 143.327 139.81 144.396 152.69 124.644C165.57 104.892 166.469 89.7111 166.469 89.7111C166.469 89.7111 167.081 73.2514 166.469 68.8983C165.857 64.5453 167.406 35.5918 133.614 34.5229C99.8209 33.454 76.9028 68.9681 75.5242 83.8786Z" stroke="black" stroke-width="3" stroke-linecap="round" stroke-linejoin="round"/>
<path d="M70.4123 85.9232C70.4123 85.9232 67.6085 82.5306 64.7041 85.1486C61.7996 87.7667 63.8211 93.4211 66.3306 94.7998C68.84 96.1785 69.9708 95.7293 69.9708 95.7293" stroke="black" stroke-width="3" stroke-linecap="round" stroke-linejoin="round"/>
<path d="M127.947 88.6932C128.725 85.1675 128.17 82.0479 126.708 81.7253C125.246 81.4028 123.43 83.9995 122.653 87.5252C121.875 91.051 122.43 94.1706 123.892 94.4931C125.354 94.8157 127.169 92.2189 127.947 88.6932Z" fill="black"/>
<path d="M157.382 91.0157C158.16 87.49 157.605 84.3703 156.143 84.0478C154.681 83.7253 152.865 86.322 152.088 89.8477C151.31 93.3734 151.865 96.4931 153.327 96.8156C154.789 97.1381 156.604 94.5414 157.382 91.0157Z" fill="black"/>
<path d="M120.399 74.6379C120.399 74.6379 125.728 69.2624 130.104 74.6379" stroke="black" stroke-width="3" stroke-linecap="round" stroke-linejoin="round"/>
<path d="M152.419 79.293C152.419 79.293 157.74 73.9174 162.124 79.293" stroke="black" stroke-width="3" stroke-linecap="round" stroke-linejoin="round"/>
<path d="M143.201 87.6118C143.201 87.6118 145.618 94.823 149.932 98.5487C154.246 102.274 150.652 108.184 145.958 108.332" stroke="black" stroke-width="3" stroke-linecap="round" stroke-linejoin="round"/>
<path d="M125.534 116.821C125.534 116.821 130.809 120.02 135.216 120.066C139.623 120.113 139.863 119.145 139.863 119.145" stroke="black" stroke-width="3" stroke-linecap="round" stroke-linejoin="round"/>
<path d="M136.27 54.5144C136.27 54.5144 102.61 94.5133 75.5244 83.8784" stroke="black" stroke-width="3" stroke-linecap="round" stroke-linejoin="round"/>
<path d="M75.7948 81.9652C78.0409 82.2983 104.955 82.2983 137.873 53.4455C137.943 58.6231 137.091 63.7718 135.355 68.6504C135.355 68.6504 149.49 74.1653 159.304 65.1338C159.304 65.1338 158.204 72.2289 157.754 72.6162C157.305 73.0034 164.849 74.4596 166.77 71.8416C168.691 69.2235 169.465 60.711 169.465 60.711C169.465 60.711 164.818 9.48857 113.893 28.8529C62.9687 48.2172 75.7948 81.9652 75.7948 81.9652Z" fill="black" stroke="black" stroke-width="3" stroke-linecap="round" stroke-linejoin="round"/>
<path d="M46.9674 315.189C59.4527 311.796 72.0387 305.7 76.3993 300.084C80.7598 294.469 85.5928 293.423 85.5928 293.423L154.625 298.458C154.625 298.458 159.753 298.14 161.689 296.01C162.611 295.003 168.156 291.564 174.639 288.094C175.137 285.636 175.469 283.146 175.63 280.643C176.018 273.091 170.983 247.336 170.983 247.336C167.918 229.482 163.78 211.828 158.591 194.472C151.287 170.623 120.306 160.166 114.118 158.299C114.06 158.284 113.998 158.288 113.942 158.31C113.886 158.332 113.839 158.371 113.806 158.422C113.774 158.472 113.758 158.532 113.761 158.592C113.764 158.652 113.786 158.709 113.824 158.756C114.947 160.112 116.713 163.404 115.218 169.786C113.134 178.67 99.4413 177.338 99.4413 177.338C71.0705 174.72 63.4647 154.194 63.4647 154.194C63.4647 154.194 38.9976 163.62 29.1844 167.749C19.3713 171.877 11.1149 188.407 7.75343 199.251C4.392 210.095 0.999599 260.117 0.999599 260.117C0.999599 260.117 -1.22327 300.201 2.9359 307.079C5.56153 309.906 13.9883 312.718 18.6122 314.104C18.6819 314.104 34.5131 318.566 46.9674 315.189ZM164.996 288.234C165.26 288.148 171.037 286.065 171.572 279.675C171.585 279.522 171.627 279.373 171.697 279.237C171.768 279.101 171.864 278.98 171.981 278.881C172.098 278.782 172.233 278.707 172.379 278.661C172.524 278.614 172.678 278.597 172.831 278.609C172.983 278.622 173.132 278.665 173.268 278.735C173.404 278.805 173.525 278.901 173.624 279.018C173.723 279.135 173.797 279.27 173.844 279.416C173.891 279.562 173.908 279.716 173.895 279.868C173.229 287.815 166.057 290.333 165.755 290.441C165.632 290.478 165.504 290.496 165.376 290.495C165.101 290.495 164.835 290.397 164.625 290.218C164.416 290.04 164.277 289.793 164.232 289.522C164.187 289.25 164.24 288.972 164.382 288.736C164.523 288.5 164.744 288.322 165.004 288.234H164.996ZM153.688 228.592C153.83 228.529 153.984 228.496 154.139 228.493C154.294 228.49 154.448 228.519 154.593 228.577C154.737 228.634 154.868 228.72 154.979 228.829C155.089 228.938 155.177 229.068 155.237 229.211C155.609 230.11 164.431 251.325 163.261 265.616C162.115 279.558 160.752 293.191 160.744 293.322C160.715 293.609 160.581 293.874 160.368 294.067C160.155 294.26 159.878 294.368 159.59 294.368H159.466C159.16 294.335 158.879 294.182 158.684 293.943C158.49 293.703 158.398 293.397 158.428 293.09C158.428 292.958 159.799 279.388 160.945 265.422C162.069 251.728 153.2 230.358 153.092 230.141C152.972 229.86 152.967 229.543 153.079 229.259C153.19 228.975 153.409 228.746 153.688 228.623V228.592ZM114.854 184.425C111.26 186.478 106.768 186.749 104.785 186.749C104.204 186.749 103.84 186.749 103.778 186.749C103.625 186.74 103.476 186.7 103.339 186.633C103.202 186.565 103.079 186.472 102.978 186.357C102.774 186.125 102.67 185.822 102.69 185.514C102.709 185.206 102.85 184.918 103.082 184.714C103.314 184.51 103.617 184.406 103.925 184.425C103.987 184.425 109.649 184.751 113.684 182.443C113.817 182.367 113.963 182.318 114.115 182.299C114.267 182.279 114.42 182.29 114.568 182.331C114.715 182.371 114.853 182.44 114.974 182.533C115.095 182.627 115.196 182.744 115.272 182.876C115.348 183.009 115.397 183.155 115.416 183.307C115.435 183.459 115.424 183.613 115.384 183.76C115.344 183.908 115.275 184.046 115.181 184.166C115.087 184.287 114.971 184.388 114.838 184.464L114.854 184.425ZM122.955 167.385C123.099 167.335 123.251 167.314 123.403 167.323C123.556 167.332 123.704 167.372 123.841 167.439C123.978 167.506 124.1 167.599 124.201 167.713C124.301 167.828 124.378 167.961 124.427 168.105C124.427 168.19 127.231 176.626 116.86 182.907C116.681 183.019 116.474 183.078 116.263 183.078C116.008 183.08 115.759 182.998 115.554 182.845C115.35 182.691 115.202 182.475 115.133 182.229C115.064 181.983 115.079 181.721 115.174 181.483C115.269 181.246 115.439 181.047 115.659 180.917C124.442 175.626 122.258 168.926 122.235 168.857C122.142 168.566 122.168 168.25 122.308 167.979C122.447 167.707 122.688 167.502 122.978 167.408L122.955 167.385ZM60.9475 158.942C61.2483 158.877 61.5625 158.934 61.822 159.099C62.0815 159.264 62.2654 159.525 62.3339 159.825C62.3727 159.988 65.432 172.079 89.1246 179.104C89.295 179.158 104.212 183.752 113.39 177.33C113.645 177.168 118.633 173.86 117.936 166.386C117.908 166.078 118.002 165.771 118.2 165.532C118.397 165.294 118.682 165.144 118.99 165.115C119.298 165.087 119.605 165.181 119.843 165.379C120.081 165.577 120.231 165.861 120.26 166.169C121.089 175.1 114.954 179.096 114.691 179.267C110.454 182.241 105.257 183.14 100.618 183.14C96.4958 183.116 92.397 182.511 88.443 181.343C63.3176 173.884 60.1963 160.894 60.0723 160.344C60.0368 160.194 60.0313 160.039 60.0562 159.888C60.0811 159.736 60.1358 159.591 60.2172 159.46C60.2986 159.33 60.4051 159.217 60.5304 159.128C60.6558 159.039 60.7976 158.976 60.9475 158.942ZM76.3683 279.713C76.4586 279.889 76.5021 280.086 76.4946 280.284C76.4871 280.482 76.4288 280.674 76.3254 280.843C76.2219 281.012 76.0767 281.151 75.9038 281.248C75.731 281.344 75.5361 281.395 75.3381 281.394C75.1224 281.394 74.9108 281.335 74.7264 281.223C74.542 281.111 74.3919 280.95 74.2926 280.759C66.4854 265.267 67.5465 253.502 67.5929 253.014C67.6227 252.706 67.7737 252.422 68.0126 252.225C68.1309 252.128 68.2673 252.054 68.4139 252.01C68.5605 251.965 68.7145 251.949 68.867 251.964C69.0196 251.979 69.1678 252.024 69.3031 252.096C69.4384 252.168 69.5582 252.266 69.6556 252.384C69.7531 252.502 69.8263 252.639 69.871 252.785C69.9158 252.932 69.9312 253.086 69.9165 253.238C69.932 253.355 68.8864 264.841 76.3683 279.713ZM78.049 284.934C78.3571 284.961 78.642 285.109 78.841 285.345C79.04 285.582 79.1368 285.888 79.1101 286.196C79.0834 286.505 78.9354 286.789 78.6986 286.988C78.4618 287.187 78.1557 287.284 77.8476 287.258C68.383 286.406 62.2642 295.135 62.1868 295.22C62.0127 295.473 61.7455 295.647 61.4436 295.704C61.1417 295.76 60.8297 295.695 60.5758 295.522C60.3227 295.348 60.1488 295.081 60.0922 294.779C60.0356 294.477 60.1009 294.165 60.2737 293.911C60.568 293.501 67.2367 283.973 78.049 284.903V284.934ZM57.4777 160.414C57.6247 160.373 57.7783 160.361 57.9298 160.38C58.0812 160.399 58.2274 160.447 58.36 160.523C58.4925 160.599 58.6087 160.7 58.7019 160.821C58.7951 160.941 58.8634 161.08 58.9028 161.227C58.9028 161.305 61.1024 168.973 66.7797 172.551C67.0391 172.717 67.2228 172.978 67.291 173.278C67.3591 173.578 67.3062 173.893 67.1437 174.155C67.0624 174.284 66.9564 174.396 66.8318 174.484C66.7072 174.572 66.5665 174.635 66.4176 174.669C66.2687 174.703 66.1145 174.707 65.964 174.681C65.8135 174.655 65.6696 174.6 65.5405 174.519C59.0887 170.452 56.7574 162.188 56.6644 161.839C56.6234 161.692 56.6119 161.538 56.6307 161.387C56.6494 161.235 56.698 161.089 56.7737 160.957C56.8493 160.824 56.9505 160.708 57.0713 160.615C57.1922 160.521 57.3303 160.453 57.4777 160.414ZM4.33779 304.98C4.24014 304.861 4.1668 304.725 4.12193 304.578C4.07707 304.431 4.06156 304.277 4.07631 304.124C4.09105 303.971 4.13575 303.823 4.20786 303.687C4.27997 303.551 4.37807 303.431 4.49656 303.334C4.61506 303.236 4.75163 303.163 4.89847 303.118C5.04531 303.073 5.19955 303.058 5.35238 303.072C5.50521 303.087 5.65364 303.132 5.7892 303.204C5.92475 303.276 6.04478 303.374 6.14242 303.493C8.65187 306.591 14.0503 307.822 14.1045 307.83H14.1975C21.7011 310.032 29.5872 310.613 37.3324 309.534C41.5148 309.015 55.1464 304.74 62.605 298.837C67.5114 295.016 72.8863 291.838 78.5989 289.38C78.7848 289.295 78.9242 289.24 79.0094 289.194C79.2898 289.065 79.6101 289.052 79.8999 289.159C80.1896 289.265 80.4251 289.483 80.5545 289.763C80.684 290.044 80.6967 290.364 80.5899 290.654C80.4832 290.944 80.2657 291.179 79.9853 291.309L79.5283 291.51C73.9944 293.883 68.7883 296.957 64.0379 300.658C56.3934 306.715 42.5682 311.223 37.6112 311.842C34.9306 312.199 32.2295 312.38 29.5252 312.385C24.1138 312.401 18.7296 311.618 13.5469 310.061C12.9272 309.976 7.25773 308.605 4.33779 304.98Z" fill="black" stroke="black" stroke-miterlimit="10"/>
<path d="M216.433 289.481L228.562 281.138C229.834 280.194 231.398 279.728 232.979 279.823C234.56 279.918 236.057 280.568 237.206 281.657C241.597 285.53 241.923 285.654 241.923 285.654L242.31 295.6L235.851 309.41" stroke="black" stroke-width="3" stroke-linecap="round" stroke-linejoin="round"/>
<path d="M18.5811 314.081C18.5811 314.081 34.4743 318.574 46.9673 315.189C59.4603 311.804 72.0386 305.7 76.3991 300.084C80.7597 294.469 85.5927 293.423 85.5927 293.423L154.625 298.458C154.625 298.458 159.753 298.14 161.689 296.01C163.625 293.88 186.35 280.836 194.676 279.675C203.002 278.513 208.679 278.513 218.036 291.68C227.392 304.848 229.591 309.108 229.591 309.108C229.591 309.108 237.011 313.562 233.139 319.371C229.266 325.181 160.597 321.501 160.597 321.501L159.706 322.656L117.952 325.955C117.952 325.955 85.7553 327.086 62.9612 326.73C40.5001 326.443 33.8005 326.947 18.5811 314.081Z" stroke="black" stroke-width="3" stroke-linecap="round" stroke-linejoin="round"/>
<path d="M227.252 321.401C227.252 321.401 216.781 310.928 202.375 307.83" stroke="black" stroke-width="3" stroke-linecap="round" stroke-linejoin="round"/>
<path d="M231.738 320.309C231.738 320.309 223.365 302.795 206.132 294.856" stroke="black" stroke-width="3" stroke-linecap="round" stroke-linejoin="round"/>
<path d="M329.382 316.35H161.822C160.825 316.35 160.017 317.158 160.017 318.155V325.033C160.017 326.03 160.825 326.838 161.822 326.838H329.382C330.378 326.838 331.186 326.03 331.186 325.033V318.155C331.186 317.158 330.378 316.35 329.382 316.35Z" fill="black" stroke="black" stroke-width="3" stroke-linecap="round" stroke-linejoin="round"/>
<path d="M361.075 229.691H259.427C258.649 229.692 257.89 229.933 257.255 230.383C256.619 230.832 256.139 231.467 255.88 232.201L226.912 314.143C226.715 314.699 226.651 315.293 226.726 315.878C226.801 316.463 227.013 317.022 227.344 317.51C227.675 317.998 228.116 318.401 228.632 318.686C229.148 318.972 229.723 319.133 230.313 319.154L327.902 322.741C328.683 322.769 329.454 322.553 330.107 322.122C330.759 321.692 331.261 321.069 331.543 320.34L364.56 234.811C364.78 234.243 364.858 233.63 364.788 233.025C364.719 232.42 364.503 231.841 364.16 231.337C363.818 230.834 363.358 230.421 362.82 230.134C362.283 229.848 361.684 229.696 361.075 229.691ZM310.034 275.817C307.532 280.604 302.219 282.719 298.811 280.937C295.403 279.156 295.179 274.144 297.681 269.357C300.182 264.57 305.705 262.092 309.12 263.873C312.536 265.655 312.559 271.03 310.034 275.817Z" fill="black" stroke="black" stroke-width="3" stroke-linecap="round" stroke-linejoin="round"/>
<path d="M182.795 113.312C179.604 104.505 178.442 91.0432 178.148 89.4011C177.853 87.759 177.086 74.8779 176.405 69.5489C175.723 64.2198 170.116 43.3141 168.66 38.8604C167.204 34.4066 160.822 16.5914 152.031 11.2624C143.24 5.93331 130.259 -2.54825 97.2104 2.95895C97.2104 2.95895 76.5849 7.60638 63.2786 21.7423C49.9724 35.8783 43.3812 54.8553 43.3812 54.8553C43.3812 54.8553 36.0232 71.555 34.4742 78.0924C32.9252 84.6298 25.1799 100.803 23.2436 101.446C23.2436 101.446 20.3392 110.895 29.2462 120.035C29.2462 120.035 32.2823 123.056 34.6059 123.955C36.9294 124.853 37.1231 129.64 40.2831 132.219C43.188 134.543 46.8564 135.698 50.5687 135.457C54.0541 135.325 55.5412 139.005 60.7072 139.454C65.8733 139.903 70.2881 132.351 70.3113 132.312C71.5798 122.072 72.229 111.764 72.2553 101.446L74.0367 102.995C73.4558 101.872 73.146 101.213 73.146 101.213C66.4309 103.405 62.8836 100.501 60.4981 96.3723C58.1126 92.2438 55.2004 85.3966 62.0472 79.9746C68.8939 74.5526 75.5316 83.9094 75.5316 83.9094C76.887 68.9989 99.836 33.4693 133.62 34.5305C167.405 35.5917 165.864 64.5451 166.476 68.906C167.087 73.2668 166.476 89.7187 166.476 89.7187C166.476 89.7187 165.569 104.923 152.697 124.675C150.277 128.469 147.474 132.004 144.332 135.225C144.332 135.225 145.533 138.71 152.403 137.262C159.273 135.813 160.535 134.45 163.153 135.612C165.771 136.774 170.124 134.644 172.253 132.421C174.383 130.198 184.452 132.227 186.094 128.354C187.736 124.481 185.993 122.127 182.795 113.312Z" fill="black" stroke="black" stroke-width="3" stroke-linecap="round" stroke-linejoin="round"/>
</svg>
