<?xml version="1.0" standalone="no"?>
<!DOCTYPE svg PUBLIC "-//W3C//DTD SVG 20010904//EN"
 "http://www.w3.org/TR/2001/REC-SVG-20010904/DTD/svg10.dtd">
<svg version="1.0" xmlns="http://www.w3.org/2000/svg"
 width="700.000000pt" height="700.000000pt" viewBox="0 0 700.000000 700.000000"
 preserveAspectRatio="xMidYMid meet">
<metadata>
Created by potrace 1.14, written by Peter Selinger 2001-2017
</metadata>
<g transform="translate(0.000000,700.000000) scale(0.100000,-0.100000)"
fill="#000000" stroke="none">
<path d="M2239 6526 c-2 -2 -57 -6 -122 -10 -66 -3 -122 -8 -125 -10 -4 -2
-29 -7 -56 -10 -64 -9 -235 -68 -309 -107 -101 -54 -141 -77 -192 -114 -249
-177 -416 -437 -622 -970 -8 -22 -19 -49 -24 -60 -5 -11 -31 -87 -58 -170 -49
-149 -142 -348 -183 -392 -25 -27 -33 -112 -17 -183 23 -103 104 -215 199
-275 25 -16 48 -43 64 -75 28 -55 46 -76 91 -107 36 -24 114 -46 158 -45 18 0
58 -14 96 -34 85 -46 143 -49 202 -10 l42 28 -8 -28 c-4 -16 -8 -36 -10 -44
-11 -54 -41 -142 -62 -182 -20 -37 -34 -49 -72 -63 -215 -81 -602 -241 -631
-262 -152 -111 -324 -426 -360 -658 -6 -38 -13 -81 -15 -95 -3 -14 -7 -50 -11
-80 -3 -30 -7 -71 -10 -90 -2 -19 -7 -62 -10 -95 -3 -33 -7 -71 -9 -84 -3 -14
-7 -61 -11 -105 -3 -45 -7 -97 -9 -116 -2 -19 -6 -80 -10 -135 -4 -55 -9 -109
-12 -120 -3 -11 -7 -191 -8 -400 -3 -395 5 -508 40 -562 18 -26 100 -70 195
-103 36 -13 72 -31 80 -40 61 -69 259 -188 340 -205 8 -2 38 -9 65 -17 87 -23
1403 -18 1645 7 19 2 78 6 130 10 52 3 113 8 135 10 46 4 179 15 243 20 34 2
42 0 42 -14 0 -10 6 -25 13 -34 11 -17 109 -18 1586 -18 1361 0 1577 2 1589
15 8 8 17 38 19 66 2 29 10 68 19 88 8 21 82 210 164 422 81 212 208 538 280
725 72 187 136 353 141 370 17 56 11 100 -17 126 l-26 24 -961 1 c-829 1 -966
0 -994 -13 -37 -17 -24 15 -178 -423 -58 -168 -111 -314 -115 -325 -5 -11 -21
-57 -37 -103 -22 -63 -31 -81 -43 -76 -34 15 -87 20 -115 11 -16 -5 -80 -43
-141 -84 l-111 -74 -60 59 c-90 90 -150 116 -263 115 -110 -1 -160 -17 -357
-109 -82 -39 -88 -40 -79 -17 8 19 9 166 2 200 -3 12 -7 48 -11 80 -7 68 -8
73 -41 263 -92 530 -219 1058 -293 1215 -106 225 -349 414 -715 555 l-58 23 7
51 c9 72 42 236 48 242 3 3 43 -6 89 -21 45 -15 99 -28 119 -30 52 -4 132 28
209 84 44 31 71 46 78 39 20 -20 116 -19 197 2 93 24 85 24 152 14 42 -5 60
-3 95 15 24 11 53 30 65 40 12 12 42 22 74 26 111 13 134 17 161 31 64 33 68
91 16 236 -60 171 -84 268 -104 417 -2 19 -6 46 -9 60 -5 32 -13 112 -20 216
-3 44 -10 120 -16 168 -10 97 -112 509 -154 627 -15 41 -29 84 -33 95 -14 51
-128 256 -173 313 -53 66 -134 125 -249 179 -64 31 -175 71 -215 79 -11 2 -41
8 -68 13 -26 4 -96 9 -154 10 -59 1 -110 4 -114 6 -3 3 -8 3 -10 1z"/>
</g>
</svg>
