<svg width="366" height="328" viewBox="0 0 366 328" fill="none" xmlns="http://www.w3.org/2000/svg">
<g clip-path="url(#clip0_117_81)">
<path d="M72.2551 101.446C72.2551 101.446 72.4332 143.458 63.5262 154.945C63.5262 154.945 66.8489 176.44 101.966 179.639C101.966 179.639 120.337 179.344 116.488 163.466C116.488 163.466 125.008 164.596 113.831 158.733C112.67 157.571 116.929 139.508 116.929 139.508" stroke="black" stroke-width="3" stroke-linecap="round" stroke-linejoin="round"/>
<path d="M75.5236 83.8784C75.5236 83.8784 68.8782 74.5215 62.0391 79.9435C55.2001 85.3655 58.0968 92.205 60.4901 96.3412C62.8834 100.477 66.4229 103.374 73.138 101.182C73.138 101.182 80.0468 116.155 91.3393 125.124C102.632 134.094 118.316 141.003 129.353 143.327C129.353 143.327 139.809 144.396 152.689 124.644C165.569 104.892 166.468 89.7109 166.468 89.7109C166.468 89.7109 167.08 73.2512 166.468 68.8981C165.856 64.5451 167.405 35.5916 133.613 34.5227C99.8203 33.4538 76.9022 68.9679 75.5236 83.8784Z" stroke="black" stroke-width="3" stroke-linecap="round" stroke-linejoin="round"/>
<path d="M70.4117 85.9232C70.4117 85.9232 67.6079 82.5306 64.7035 85.1486C61.799 87.7667 63.8205 93.4211 66.33 94.7998C68.8394 96.1785 69.9702 95.7293 69.9702 95.7293" stroke="black" stroke-width="3" stroke-linecap="round" stroke-linejoin="round"/>
<path d="M127.946 88.6931C128.724 85.1674 128.169 82.0478 126.707 81.7252C125.245 81.4027 123.429 83.9994 122.652 87.5251C121.874 91.0509 122.429 94.1705 123.891 94.493C125.353 94.8156 127.168 92.2188 127.946 88.6931Z" fill="black"/>
<path d="M157.382 91.0156C158.16 87.4899 157.605 84.3702 156.143 84.0477C154.681 83.7252 152.865 86.3219 152.088 89.8476C151.31 93.3733 151.865 96.493 153.327 96.8155C154.789 97.138 156.604 94.5413 157.382 91.0156Z" fill="black"/>
<path d="M120.399 74.6377C120.399 74.6377 125.728 69.2622 130.104 74.6377" stroke="black" stroke-width="3" stroke-linecap="round" stroke-linejoin="round"/>
<path d="M152.418 79.2929C152.418 79.2929 157.739 73.9173 162.123 79.2929" stroke="black" stroke-width="3" stroke-linecap="round" stroke-linejoin="round"/>
<path d="M143.201 87.6118C143.201 87.6118 145.618 94.823 149.932 98.5487C154.246 102.274 150.652 108.184 145.958 108.332" stroke="black" stroke-width="3" stroke-linecap="round" stroke-linejoin="round"/>
<path d="M125.534 116.821C125.534 116.821 130.809 120.02 135.216 120.066C139.623 120.113 139.863 119.145 139.863 119.145" stroke="black" stroke-width="3" stroke-linecap="round" stroke-linejoin="round"/>
<path d="M136.269 54.5143C136.269 54.5143 102.609 94.5132 75.5236 83.8783" stroke="black" stroke-width="3" stroke-linecap="round" stroke-linejoin="round"/>
<path d="M75.7946 81.9651C78.0407 82.2982 104.955 82.2982 137.873 53.4454C137.943 58.623 137.091 63.7717 135.355 68.6503C135.355 68.6503 149.49 74.1652 159.304 65.1337C159.304 65.1337 158.204 72.2288 157.754 72.6161C157.305 73.0033 164.849 74.4595 166.77 71.8415C168.691 69.2234 169.465 60.7109 169.465 60.7109C169.465 60.7109 164.818 9.48849 113.893 28.8528C62.9685 48.2171 75.7946 81.9651 75.7946 81.9651Z" fill="black" stroke="black" stroke-width="3" stroke-linecap="round" stroke-linejoin="round"/>
<path d="M46.9669 315.189C59.4522 311.796 72.0382 305.7 76.3988 300.084C80.7593 294.469 85.5923 293.423 85.5923 293.423L154.625 298.458C154.625 298.458 159.753 298.14 161.689 296.01C162.611 295.003 168.156 291.564 174.639 288.094C175.137 285.636 175.469 283.146 175.63 280.643C176.018 273.091 170.983 247.336 170.983 247.336C167.918 229.482 163.78 211.828 158.591 194.472C151.287 170.623 120.306 160.166 114.118 158.299C114.06 158.284 113.998 158.288 113.942 158.31C113.886 158.332 113.839 158.371 113.806 158.422C113.774 158.472 113.758 158.532 113.761 158.592C113.764 158.652 113.786 158.709 113.824 158.756C114.947 160.112 116.713 163.404 115.218 169.786C113.134 178.67 99.4408 177.338 99.4408 177.338C71.07 174.72 63.4642 154.194 63.4642 154.194C63.4642 154.194 38.9971 163.62 29.1839 167.749C19.3708 171.877 11.1144 188.407 7.75294 199.251C4.39151 210.095 0.999112 260.117 0.999112 260.117C0.999112 260.117 -1.22376 300.201 2.93541 307.079C5.56104 309.906 13.9878 312.718 18.6117 314.104C18.6814 314.104 34.5126 318.566 46.9669 315.189ZM164.996 288.234C165.26 288.148 171.037 286.065 171.572 279.675C171.585 279.522 171.627 279.373 171.697 279.237C171.768 279.101 171.864 278.98 171.981 278.881C172.098 278.782 172.233 278.707 172.379 278.661C172.524 278.614 172.678 278.597 172.831 278.609C172.983 278.622 173.132 278.665 173.268 278.735C173.404 278.805 173.525 278.901 173.624 279.018C173.723 279.135 173.797 279.27 173.844 279.416C173.891 279.562 173.908 279.716 173.895 279.868C173.229 287.815 166.057 290.333 165.755 290.441C165.632 290.478 165.504 290.496 165.376 290.495C165.101 290.495 164.835 290.397 164.625 290.218C164.416 290.04 164.277 289.793 164.232 289.522C164.187 289.25 164.24 288.972 164.382 288.736C164.523 288.5 164.744 288.322 165.004 288.234H164.996ZM153.688 228.592C153.83 228.529 153.984 228.496 154.139 228.493C154.294 228.49 154.448 228.519 154.593 228.577C154.737 228.634 154.868 228.72 154.979 228.829C155.089 228.938 155.177 229.068 155.237 229.211C155.609 230.11 164.431 251.325 163.261 265.616C162.115 279.558 160.752 293.191 160.744 293.322C160.715 293.609 160.581 293.874 160.368 294.067C160.155 294.26 159.878 294.368 159.59 294.368H159.466C159.16 294.335 158.879 294.182 158.684 293.943C158.49 293.703 158.398 293.397 158.428 293.09C158.428 292.958 159.799 279.388 160.945 265.422C162.069 251.728 153.2 230.358 153.092 230.141C152.972 229.86 152.967 229.543 153.079 229.259C153.19 228.975 153.409 228.746 153.688 228.623V228.592ZM114.854 184.425C111.26 186.478 106.768 186.749 104.785 186.749C104.204 186.749 103.84 186.749 103.778 186.749C103.625 186.74 103.476 186.7 103.339 186.633C103.202 186.565 103.079 186.472 102.978 186.357C102.774 186.125 102.67 185.822 102.69 185.514C102.709 185.206 102.85 184.918 103.082 184.714C103.314 184.51 103.617 184.406 103.925 184.425C103.987 184.425 109.649 184.751 113.684 182.443C113.817 182.367 113.963 182.318 114.115 182.299C114.267 182.279 114.42 182.29 114.568 182.331C114.715 182.371 114.853 182.44 114.974 182.533C115.095 182.627 115.196 182.744 115.272 182.876C115.348 183.009 115.397 183.155 115.416 183.307C115.435 183.459 115.424 183.613 115.384 183.76C115.344 183.908 115.275 184.046 115.181 184.166C115.087 184.287 114.971 184.388 114.838 184.464L114.854 184.425ZM122.955 167.385C123.099 167.335 123.251 167.314 123.403 167.323C123.556 167.332 123.704 167.372 123.841 167.439C123.978 167.506 124.1 167.599 124.201 167.713C124.301 167.828 124.378 167.961 124.427 168.105C124.427 168.19 127.231 176.626 116.86 182.907C116.681 183.019 116.474 183.078 116.263 183.078C116.008 183.08 115.759 182.998 115.554 182.845C115.35 182.691 115.202 182.475 115.133 182.229C115.064 181.983 115.079 181.721 115.174 181.483C115.269 181.246 115.439 181.047 115.659 180.917C124.442 175.626 122.258 168.926 122.235 168.857C122.142 168.566 122.168 168.25 122.308 167.979C122.447 167.707 122.688 167.502 122.978 167.408L122.955 167.385ZM60.947 158.942C61.2478 158.877 61.562 158.934 61.8215 159.099C62.081 159.264 62.2649 159.525 62.3334 159.825C62.3722 159.988 65.4315 172.079 89.1241 179.104C89.2945 179.158 104.212 183.752 113.39 177.33C113.645 177.168 118.633 173.86 117.936 166.386C117.908 166.078 118.002 165.771 118.2 165.532C118.397 165.294 118.682 165.144 118.99 165.115C119.298 165.087 119.605 165.181 119.843 165.379C120.081 165.577 120.231 165.861 120.26 166.169C121.089 175.1 114.954 179.096 114.691 179.267C110.454 182.241 105.257 183.14 100.618 183.14C96.4953 183.116 92.3965 182.511 88.4425 181.343C63.3171 173.884 60.1958 160.894 60.0718 160.344C60.0363 160.194 60.0308 160.039 60.0557 159.888C60.0806 159.736 60.1353 159.591 60.2167 159.46C60.2981 159.33 60.4046 159.217 60.5299 159.128C60.6553 159.039 60.7971 158.976 60.947 158.942ZM76.3678 279.713C76.4581 279.889 76.5016 280.086 76.4941 280.284C76.4866 280.482 76.4283 280.674 76.3249 280.843C76.2214 281.012 76.0762 281.151 75.9033 281.248C75.7305 281.344 75.5356 281.395 75.3376 281.394C75.1219 281.394 74.9103 281.335 74.7259 281.223C74.5415 281.111 74.3914 280.95 74.2921 280.759C66.4849 265.267 67.546 253.502 67.5924 253.014C67.6222 252.706 67.7732 252.422 68.0121 252.225C68.1304 252.128 68.2668 252.054 68.4134 252.01C68.56 251.965 68.714 251.949 68.8665 251.964C69.0191 251.979 69.1673 252.024 69.3026 252.096C69.4379 252.168 69.5577 252.266 69.6551 252.384C69.7526 252.502 69.8258 252.639 69.8705 252.785C69.9153 252.932 69.9307 253.086 69.916 253.238C69.9315 253.355 68.8859 264.841 76.3678 279.713ZM78.0485 284.934C78.3566 284.961 78.6415 285.109 78.8405 285.345C79.0395 285.582 79.1363 285.888 79.1096 286.196C79.0829 286.505 78.9349 286.789 78.6981 286.988C78.4613 287.187 78.1552 287.284 77.8471 287.258C68.3825 286.406 62.2637 295.135 62.1863 295.22C62.0122 295.473 61.745 295.647 61.4431 295.704C61.1412 295.76 60.8292 295.695 60.5753 295.522C60.3222 295.348 60.1483 295.081 60.0917 294.779C60.0351 294.477 60.1004 294.165 60.2732 293.911C60.5675 293.501 67.2362 283.973 78.0485 284.903V284.934ZM57.4772 160.414C57.6242 160.373 57.7778 160.361 57.9293 160.38C58.0807 160.399 58.2269 160.447 58.3595 160.523C58.492 160.599 58.6082 160.7 58.7014 160.821C58.7946 160.941 58.8629 161.08 58.9023 161.227C58.9023 161.305 61.1019 168.973 66.7792 172.551C67.0386 172.717 67.2223 172.978 67.2905 173.278C67.3586 173.578 67.3057 173.893 67.1432 174.155C67.0619 174.284 66.9559 174.396 66.8313 174.484C66.7067 174.572 66.566 174.635 66.4171 174.669C66.2682 174.703 66.114 174.707 65.9635 174.681C65.813 174.655 65.6691 174.6 65.54 174.519C59.0882 170.452 56.7569 162.188 56.6639 161.839C56.6229 161.692 56.6114 161.538 56.6302 161.387C56.6489 161.235 56.6975 161.089 56.7732 160.957C56.8488 160.824 56.95 160.708 57.0708 160.615C57.1917 160.521 57.3298 160.453 57.4772 160.414ZM4.3373 304.98C4.23965 304.861 4.16631 304.725 4.12144 304.578C4.07658 304.431 4.06107 304.277 4.07582 304.124C4.09056 303.971 4.13526 303.823 4.20737 303.687C4.27948 303.551 4.37758 303.431 4.49607 303.334C4.61457 303.236 4.75114 303.163 4.89798 303.118C5.04482 303.073 5.19906 303.058 5.35189 303.072C5.50472 303.087 5.65315 303.132 5.78871 303.204C5.92426 303.276 6.04429 303.374 6.14193 303.493C8.65138 306.591 14.0498 307.822 14.104 307.83H14.197C21.7006 310.032 29.5867 310.613 37.3319 309.534C41.5143 309.015 55.1459 304.74 62.6045 298.837C67.5109 295.016 72.8858 291.838 78.5984 289.38C78.7843 289.295 78.9237 289.24 79.0089 289.194C79.2893 289.065 79.6096 289.052 79.8994 289.159C80.1891 289.265 80.4246 289.483 80.554 289.763C80.6835 290.044 80.6962 290.364 80.5894 290.654C80.4827 290.944 80.2652 291.179 79.9848 291.309L79.5278 291.51C73.9939 293.883 68.7878 296.957 64.0374 300.658C56.3929 306.715 42.5677 311.223 37.6107 311.842C34.9301 312.199 32.229 312.38 29.5247 312.385C24.1133 312.401 18.7291 311.618 13.5464 310.061C12.9267 309.976 7.25724 308.605 4.3373 304.98Z" fill="black" stroke="black" stroke-miterlimit="10"/>
<path d="M216.432 289.481L228.561 281.138C229.833 280.194 231.397 279.728 232.978 279.823C234.559 279.918 236.056 280.568 237.205 281.657C241.596 285.53 241.922 285.654 241.922 285.654L242.309 295.6L235.85 309.41" stroke="black" stroke-width="3" stroke-linecap="round" stroke-linejoin="round"/>
<path d="M18.5808 314.081C18.5808 314.081 34.474 318.574 46.967 315.189C59.46 311.804 72.0383 305.7 76.3988 300.084C80.7594 294.469 85.5924 293.423 85.5924 293.423L154.625 298.458C154.625 298.458 159.753 298.14 161.689 296.01C163.625 293.88 186.35 280.836 194.676 279.675C203.002 278.513 208.679 278.513 218.036 291.68C227.392 304.848 229.591 309.108 229.591 309.108C229.591 309.108 237.011 313.562 233.139 319.371C229.266 325.181 160.597 321.501 160.597 321.501L159.706 322.656L117.952 325.955C117.952 325.955 85.755 327.086 62.9609 326.73C40.4998 326.443 33.8002 326.947 18.5808 314.081Z" stroke="black" stroke-width="3" stroke-linecap="round" stroke-linejoin="round"/>
<path d="M227.252 321.401C227.252 321.401 216.781 310.928 202.375 307.83" stroke="black" stroke-width="3" stroke-linecap="round" stroke-linejoin="round"/>
<path d="M231.737 320.309C231.737 320.309 223.364 302.795 206.131 294.856" stroke="black" stroke-width="3" stroke-linecap="round" stroke-linejoin="round"/>
<path d="M329.381 316.35H161.821C160.824 316.35 160.016 317.158 160.016 318.155V325.033C160.016 326.03 160.824 326.838 161.821 326.838H329.381C330.377 326.838 331.185 326.03 331.185 325.033V318.155C331.185 317.158 330.377 316.35 329.381 316.35Z" fill="black" stroke="black" stroke-width="3" stroke-linecap="round" stroke-linejoin="round"/>
<path d="M361.074 229.691H259.426C258.648 229.692 257.889 229.933 257.254 230.383C256.618 230.832 256.138 231.467 255.879 232.201L226.911 314.143C226.714 314.699 226.65 315.293 226.725 315.878C226.8 316.463 227.012 317.022 227.343 317.51C227.674 317.998 228.115 318.401 228.631 318.686C229.147 318.972 229.722 319.133 230.312 319.154L327.901 322.741C328.682 322.769 329.453 322.553 330.106 322.122C330.758 321.692 331.26 321.069 331.542 320.34L364.559 234.811C364.779 234.243 364.857 233.63 364.787 233.025C364.718 232.42 364.502 231.841 364.159 231.337C363.817 230.834 363.357 230.421 362.819 230.134C362.282 229.848 361.683 229.696 361.074 229.691ZM310.033 275.817C307.531 280.604 302.218 282.719 298.81 280.937C295.402 279.156 295.178 274.144 297.68 269.357C300.181 264.57 305.704 262.092 309.119 263.873C312.535 265.655 312.558 271.03 310.033 275.817Z" fill="black" stroke="black" stroke-width="3" stroke-linecap="round" stroke-linejoin="round"/>
<path d="M182.795 113.312C179.604 104.505 178.442 91.0431 178.148 89.401C177.853 87.7589 177.086 74.8778 176.405 69.5488C175.723 64.2197 170.116 43.314 168.66 38.8603C167.204 34.4065 160.822 16.5913 152.031 11.2623C143.24 5.93322 130.259 -2.54834 97.2101 2.95886C97.2101 2.95886 76.5846 7.60629 63.2783 21.7422C49.9721 35.8782 43.3809 54.8552 43.3809 54.8552C43.3809 54.8552 36.0229 71.5549 34.4739 78.0923C32.9249 84.6297 25.1796 100.803 23.2433 101.446C23.2433 101.446 20.3389 110.895 29.2459 120.035C29.2459 120.035 32.282 123.056 34.6056 123.955C36.9291 124.853 37.1228 129.64 40.2828 132.219C43.1877 134.543 46.8561 135.698 50.5684 135.457C54.0538 135.325 55.5409 139.005 60.7069 139.454C65.873 139.903 70.2878 132.351 70.311 132.312C71.5795 122.072 72.2287 111.764 72.255 101.446L74.0364 102.995C73.4555 101.872 73.1457 101.213 73.1457 101.213C66.4306 103.405 62.8833 100.501 60.4978 96.3722C58.1123 92.2437 55.2001 85.3965 62.0469 79.9745C68.8936 74.5525 75.5313 83.9093 75.5313 83.9093C76.8867 68.9988 99.8357 33.4692 133.62 34.5304C167.405 35.5916 165.864 64.545 166.476 68.9059C167.087 73.2667 166.476 89.7186 166.476 89.7186C166.476 89.7186 165.569 104.923 152.697 124.675C150.277 128.469 147.474 132.004 144.332 135.225C144.332 135.225 145.533 138.71 152.403 137.262C159.273 135.813 160.535 134.45 163.153 135.612C165.771 136.774 170.124 134.644 172.253 132.421C174.383 130.198 184.452 132.227 186.094 128.354C187.736 124.481 185.993 122.127 182.795 113.312Z" fill="black" stroke="black" stroke-width="3" stroke-linecap="round" stroke-linejoin="round"/>
</g>
<defs>
<clipPath id="clip0_117_81">
<rect width="366" height="328" fill="white"/>
</clipPath>
</defs>
</svg>
